<svg width="250" height="106" xmlns="http://www.w3.org/2000/svg">

 <g>
  <title>background</title>
  <rect fill="none" id="canvas_background" height="402" width="582" y="-1" x="-1"/>
 </g>
 <g>
  <title>Layer 1</title>
  <path id="svg_1" fill="#0097e6" d="m93.93,94.2987l-17.0632,0l10.2517,-34.8974l-8.6692,0l-14.2422,46.5987l-17.0632,0l28.2093,-94.3675l17.0631,0l-9.6324,33.1078l8.6692,0l13.6919,-44.7403l17.063,0l-28.278,94.2987z"/>
  <path id="svg_2" fill="#0097e6" d="m123.584,11.6325l32.544,0l-4.885,14.8675l-14.793,0l-5.366,18.1714l14.861,0l-4.678,14.6611l-14.518,0l-5.711,19.2039l15.825,0l-5.711,15.6935l-31.9242,0l24.3562,-82.5974z"/>
  <path id="svg_3" fill="#0097e6" d="m151.312,106l-17.201,0l27.452,-94.3675l31.237,0c3.715,0 6.192,1.0324 7.499,3.1662c1.308,2.1338 1.514,4.5429 0.689,7.2961l-8.257,28.0831c-0.413,1.239 -1.17,2.3403 -2.339,3.3728c-1.17,1.0324 -2.821,1.5142 -4.954,1.5142c1.307,0.2065 2.408,1.0325 3.303,2.478c0.894,1.4454 0.894,3.648 0,6.6078l-8.876,30.148l-17.132,0l9.495,-32.4195c0.206,-0.6883 0.275,-1.3078 0.069,-1.9272c-0.207,-0.6195 -0.826,-0.8949 -1.858,-0.8949l-5.711,0l-13.416,46.9429zm22.842,-59.126c0.826,0 1.583,-0.2065 2.34,-0.6194c0.688,-0.413 1.238,-1.239 1.651,-2.5468l4.541,-15.3494c0.688,-2.2714 -0.207,-3.4415 -2.615,-3.4415l-5.366,0l-6.468,21.9571l5.917,0z"/>
  <path id="svg_4" fill="#0097e6" d="m242.957,11.6325c2.684,0 4.61,0.9636 5.849,2.8909c1.238,1.9273 1.513,4.1299 0.825,6.5389l-18.989,64.4949c-1.032,3.4415 -2.821,5.7129 -5.298,6.9519c-2.477,1.239 -5.16,1.7896 -7.981,1.7896l-20.366,0c-1.445,0 -2.752,-0.2753 -3.991,-0.7571c-1.238,-0.4818 -2.201,-1.239 -3.027,-2.2026c-0.826,-0.9637 -1.307,-2.2026 -1.582,-3.5792c-0.276,-1.3767 -0.138,-2.9598 0.412,-4.7494l18.646,-63.3247c0.619,-2.4091 1.858,-4.4052 3.715,-5.8506c1.858,-1.4455 4.197,-2.2026 7.018,-2.2026l24.769,0zm-17.888,13.2844c-0.826,0 -1.445,0.2065 -1.789,0.5506c-0.413,0.413 -0.619,0.8948 -0.826,1.4455l-15.205,51.4857c-0.413,1.3766 0.137,2.065 1.582,2.065l4.404,0c1.444,0 2.339,-0.6884 2.752,-2.065l15.136,-51.4169c0.344,-1.4454 -0.206,-2.1337 -1.72,-2.1337l-4.334,0l0,0.0688z"/>
  <path id="svg_5" fill="#41414D" d="m31.443,20.6494l11.0773,0c1.4449,0 2.3393,0.413 2.7521,1.1701c0.4129,0.7571 0.4817,1.6519 0.2064,2.7532l-2.6145,8.9481c-0.1376,0.5506 -0.4816,1.0325 -1.032,1.4455c-0.5504,0.4818 -1.3761,0.6194 -2.4081,0.6194c0.5504,0 0.9632,0.1377 1.2384,0.3442c0.3441,0.2065 0.5505,0.4818 0.6881,0.826c0.1376,0.3441 0.2064,0.6883 0.2064,1.1013c0,0.4129 -0.0688,0.8259 -0.1376,1.1701l-2.4769,8.1909c-0.2753,0.9636 -0.8257,1.7208 -1.5137,2.2714c-0.688,0.5507 -1.7889,0.826 -3.0961,0.826l-11.6278,0l8.738,-29.6662zm1.1009,24.7792c0.2752,0 0.5504,-0.0688 0.7568,-0.1377c0.2064,-0.1376 0.4128,-0.413 0.5504,-0.8259l1.7889,-5.9884c0.1376,-0.4129 0.1376,-0.6883 0,-0.9636c-0.1376,-0.2753 -0.4128,-0.3442 -0.8256,-0.3442l-1.9265,0l-2.4769,8.3286l2.1329,0l0,-0.0688zm3.3713,-12.252c0.4128,0 0.7569,-0.0688 0.9633,-0.2065c0.2064,-0.1376 0.4128,-0.4129 0.5504,-0.8948l1.5825,-5.3688c0.1376,-0.413 0.1376,-0.6883 0.0688,-0.8948c-0.1376,-0.2065 -0.4129,-0.3442 -0.8257,-0.3442l-1.9953,0l-2.2705,7.7091l1.9265,0z"/>
  <path id="svg_6" fill="#41414D" d="m48.7812,20.6494l11.6965,0l-1.5825,5.3688l-5.5042,0l-1.9265,6.539l5.3666,0l-1.5824,5.3l-5.3667,0l-2.0641,6.8831l5.7107,0l-2.0641,5.6441l-11.4213,0l8.738,-29.735z"/>
  <path id="svg_7" fill="#41414D" d="m18.9897,55.5468l-1.5825,5.3688l-4.197,0l-7.08673,24.2974l-6.12347,0l7.22432,-24.3662l-4.26579,0l1.58247,-5.3689l14.4487,0l0,0.0689z"/>
  <path id="svg_8" fill="#41414D" d="m27.3149,85.213l-6.1234,0l3.6465,-12.5272l-3.0961,0l-3.7154,12.5272l-6.1235,0l8.738,-29.6662l6.1235,0l-3.4401,11.9078l3.0961,0l3.509,-11.9078l6.1234,0l-8.738,29.6662z"/>
  <path id="svg_9" fill="#41414D" d="m37.9794,55.5468l11.6965,0l-1.5825,5.3688l-5.5042,0l-1.9265,6.539l5.3666,0l-1.5824,5.3l-5.3667,0l-2.0641,6.8831l5.7107,0l-2.0641,5.6442l-11.4213,0l8.738,-29.7351z"/>
 </g>
</svg>